<?xml version="1.0" encoding="utf-8"?>
<!-- Generator: Adobe Illustrator 16.0.0, SVG Export Plug-In . SVG Version: 6.00 Build 0)  -->
<!DOCTYPE svg PUBLIC "-//W3C//DTD SVG 1.1//EN" "http://www.w3.org/Graphics/SVG/1.1/DTD/svg11.dtd">
<svg version="1.1" id="Camada_1" xmlns="http://www.w3.org/2000/svg" xmlns:xlink="http://www.w3.org/1999/xlink" x="0px" y="0px"
	 width="940px" height="50px" viewBox="0 0 940 50" enable-background="new 0 0 940 50" xml:space="preserve">
<line fill="none" stroke="#54C2F0" stroke-width="0.75" stroke-miterlimit="10" x1="0" y1="25" x2="940" y2="25"/>
<g>
	<ellipse fill="#FFFFFF" stroke="#54C2F0" stroke-width="0.75" stroke-miterlimit="10" cx="470" cy="25" rx="24.752" ry="24.083"/>
	<g>
		<path fill="#52C2F0" d="M477.51,16.142v1.5h-3.991v-6.074c0-0.256-0.214-0.465-0.479-0.465h-4.452
			c-0.193-0.843-0.966-1.473-1.891-1.473c-1.07,0-1.939,0.844-1.939,1.887c0,1.042,0.869,1.885,1.939,1.885
			c0.887,0,1.633-0.578,1.864-1.368h4.001v10.002h0.956v-3.567h3.991v1.5h1.129v2.895h0.185v-2.895h1.355v2.895h0.187v-2.895h1.354
			v2.895h0.186v-2.895h1.355v2.895h0.186v-2.895h0.811v-3.826H477.51z M466.697,12.834c-0.748,0-1.354-0.591-1.354-1.319
			s0.606-1.319,1.354-1.319s1.355,0.591,1.355,1.319S467.445,12.834,466.697,12.834z M478.997,19.192h-0.531v-1.758h0.531V19.192z
			 M480.538,19.192h-0.531v-1.758h0.531V19.192z M482.078,19.192h-0.531v-1.758h0.531V19.192z M483.619,19.192h-0.53v-1.758h0.53
			V19.192z"/>
		<path fill="#52C2F0" d="M482.233,29.928l-8.54-2.695h-6.762l-9.776-10.042c-0.483-0.498-1.291-0.519-1.802-0.047
			c-0.512,0.471-0.533,1.256-0.049,1.754l10.53,10.815h7.455l8.156,2.574c0.132,0.041,0.264,0.059,0.395,0.059
			c0.537,0,1.037-0.332,1.212-0.855C483.271,30.838,482.903,30.139,482.233,29.928z"/>
		<path fill="#52C2F0" d="M462.817,20l4.838,5.542h6.861l6.294,2.746c0.17,0.074,0.347,0.107,0.521,0.107
			c0.486,0,0.952-0.271,1.164-0.732c0.288-0.625,0.001-1.359-0.642-1.639l-6.792-2.963h-6.228l-4.074-4.667
			c-0.456-0.522-1.26-0.587-1.798-0.143C462.427,18.694,462.361,19.477,462.817,20z"/>
		<ellipse fill="#52C2F0" cx="461.664" cy="16.05" rx="2.03" ry="1.976"/>
		<polygon fill="#52C2F0" points="473.073,30.357 465.9,30.357 465.9,37.75 458.769,37.75 458.769,38.447 480.206,38.447 
			480.206,37.75 473.073,37.75 		"/>
	</g>
</g>
</svg>
