<?xml version="1.0" encoding="utf-8"?>
<!-- Generator: Adobe Illustrator 16.0.0, SVG Export Plug-In . SVG Version: 6.00 Build 0)  -->
<!DOCTYPE svg PUBLIC "-//W3C//DTD SVG 1.1//EN" "http://www.w3.org/Graphics/SVG/1.1/DTD/svg11.dtd">
<svg version="1.1" id="Camada_1" xmlns="http://www.w3.org/2000/svg" xmlns:xlink="http://www.w3.org/1999/xlink" x="0px" y="0px"
	 width="24px" height="25px" viewBox="0 0 24 25" enable-background="new 0 0 24 25" xml:space="preserve">
<path fill="#52C2F0" d="M23.87,16.997c0.006-0.147-0.053-0.291-0.162-0.393l-5.276-4.885c-0.104-0.098-0.246-0.146-0.393-0.139
	c-0.144,0.012-0.276,0.08-0.367,0.19c-0.272,0.337-1.22,1.297-1.973,1.297c-0.206,0-0.38-0.073-0.546-0.23
	c-1.328-1.246-4.13-4.063-4.146-4.079c-0.036-0.041-0.875-1.023,0.672-2.992c0.147-0.191,0.145-0.455-0.012-0.639L7.496,0.181
	C7.332-0.013,7.052-0.061,6.832,0.066C6.721,0.131,4.114,1.679,3.634,4.505c-0.324,1.907,0.397,3.9,2.147,5.925
	C5.79,10.439,5.8,10.45,5.81,10.459l6.698,6.588c0.093,0.102,2.288,2.451,5.677,2.451c0.294,0,0.587-0.022,0.88-0.06
	c0.11,0.554,0.144,1.8-1.254,3.176c-0.604,0.593-1.315,0.702-1.813,0.689c-0.919-0.025-1.903-0.49-2.563-1.215
	c-0.008-0.008-0.016-0.017-0.025-0.024L5.845,14.43c-0.022-0.022-0.049-0.045-0.075-0.066c-0.8-0.639-2.768-1.422-4.489,0.172
	c-1.691,1.559-1.16,3.573-0.645,4.418c0.037,0.062,0.081,0.116,0.131,0.165l3.075,3.024c0.337,0.334,0.885,0.334,1.222,0
	c0.338-0.331,0.338-0.869,0-1.201l-2.986-2.939c-0.148-0.294-0.576-1.339,0.387-2.229c0.959-0.886,1.934-0.293,2.187-0.111
	l7.508,7.578c0.982,1.067,2.397,1.729,3.792,1.765c0.044,0.001,0.087,0.001,0.129,0.001c1.142,0,2.161-0.408,2.954-1.188
	c1.979-1.948,1.911-3.848,1.71-4.777c0.991-0.354,1.974-0.904,2.934-1.664C23.794,17.283,23.865,17.146,23.87,16.997z"/>
</svg>
