<?xml version="1.0" encoding="utf-8"?>
<!-- Generator: Adobe Illustrator 16.0.0, SVG Export Plug-In . SVG Version: 6.00 Build 0)  -->
<!DOCTYPE svg PUBLIC "-//W3C//DTD SVG 1.1//EN" "http://www.w3.org/Graphics/SVG/1.1/DTD/svg11.dtd">
<svg version="1.1" id="Camada_1" xmlns="http://www.w3.org/2000/svg" xmlns:xlink="http://www.w3.org/1999/xlink" x="0px" y="0px"
	 width="345px" height="128px" viewBox="0 0 345 128" enable-background="new 0 0 345 128" xml:space="preserve">
<g>
	<path fill="#53C0EF" d="M84.29,12.53C84.29,5.61,78.573,0,71.524,0H12.766C5.716,0,0,5.61,0,12.53v89.34
		c0,6.918,5.716,12.527,12.766,12.527h58.759c7.049,0,12.765-5.609,12.765-12.527V12.53z"/>
	<path fill="#FFFFFF" d="M75.163,10.831c0,0-13.502-4.965-23.083-1.132c-9.581,3.833-10.13,3.278-15.27,0.753
		c-5.138-2.527-20.966-0.667-26.279,9.439c-5.314,10.103-0.609,17.511,1.741,22.474c2.353,4.965,6.012,9.058,5.14,19.685
		c-0.542,6.621-1.541,17.607-0.76,26.48c2.151,24.469,12.1,20.17,14.174,12.195c1.133-4.355,3.509-16.453,11.208-21.127
		c0,0-2.2,34.227-16.908,34.227c-14.708,0-15.534-28.041-15.534-30.242c0-2.199,0.137-13.471,1.236-21.032
		c1.1-7.56-3.162-15.396-5.499-20.207c-2.337-4.813-8.137-20.729,1.994-30.586c10.172-9.898,18.97-9.554,28.18-8.593
		c9.21,0.962,8.248,5.568,14.091,1.65C53.869,1.95,70.489,4.476,75.163,10.831z"/>
	<g>
		<ellipse fill="#0669B1" cx="336.563" cy="28.174" rx="3.936" ry="4.006"/>
		<path fill="#0669B1" d="M343.25,61.535c-2.441,0.691-24.846,21.761-18.115,4.077c6.729-17.684,2.885-18.236-5.18-16.095
			c-8.057,2.142-29.422,20.722-29.422,20.722s-7.471,7.598-1.48-10.361c4.334-13-5.896-12.753-15.717-7.566
			c-3.746,1.98-16.592,13.23-16.592,13.23s4.215-7.667,5.102-9.807c1.492-3.604,22.033-22.726,24.252-42.205
			c3.502-30.753-27.801,27.698-31.129,36.816c0,0-23.65,18.291-38.605,25.018c-9.055,4.07-14.637-1.605-6.961-10.57
			c5.09-5.94,13.389-11.443,18.209-9.88c9.541,3.096,13.072-6.935,3.682-8.37c-2.402-0.367-18.869-0.372-29.07,15.74
			c-9.232,6.718-24.742,12.81-24.742,12.81c-9.056,4.072-14.639-1.605-6.961-10.569c5.088-5.943,13.389-11.445,18.209-9.882
			c9.539,3.096,13.07-6.936,3.68-8.37c-2.297-0.349-17.432-0.372-27.677,13.685c-5.471,4.375-16.924,13.22-27.101,15.587
			c-10.765,2.502-8.403-3.172-7.274-4.434c2.607-2.912,14.649-5.627,22.275-13.762c7.745-8.262,2.637-10.563-5.625-10.179
			c-13.02,0.607-19.934,10.459-22.795,15.957c-0.315,0.244-0.648,0.51-1.012,0.828c-32.534,24.314-24.728,8.111-21.885,5.111
			c12.569-13.262,9.089-13.486,6.802-19.755c-2.354-6.448-5.952-4.72-9.464-2.969c-2.218,1.104-31.127,18.441-31.127,18.441
			S75.658,47.79,77.95,42.679c2.027-4.519-2.956-17.544-7.836-11.051c-6.583,8.758-5.038,12.079-31.791,38.543
			C15.695,92.548,23.75,50.379,56.214,24.444c31.645-25.282,19.962-6.356,19.962-6.356c-5.249,7.011,6,9.528,7.985-3.454
			c0.296-1.934,1.085-15.219-12.717-9.394C41.673,17.805,25.425,43.66,19.319,59.948c-8.172,21.801,6.286,28.873,18.264,18.51
			c3.938-3.406,8.245-8.479,13.457-13.813c7.688-7.877,13.389-14.377,13.389-14.377s-2.3,6.916-9.545,21.836
			c0,0-37.927,22.002-32.236,48.766c3.081,14.488,16.488,5.459,25.287-12.846C56.471,90.259,65.16,71.69,65.16,71.69
			s11.188-5.977,28.465-15.335c15.305-8.288,1.601,8.379,0.148,10.708c-4.437,7.111-3.4,25.832,17.893,11.809l9.702-6.9
			c-0.115,7.742,8.575,11.342,16.561,10.203c8.73-1.248,15.917-5.625,21.121-9.881c-0.609,8.416,8.731,15.264,26.973,6.557
			c2.553-1.219,7.551-3.922,11.914-6.326c-0.643,8.434,8.697,15.32,26.971,6.6c5.115-2.443,22.08-14.549,22.08-14.549
			s-7.1,14.713-3.033,16.99c4.066,2.283,10.129-8.15,19.445-15.816c9.314-7.667,16.783-12.156,16.707-8.082
			c-0.07,4.076-5.256,29.589,7.615,21c13.459-8.98,36.008-29.427,31.867-19.895c-4.139,9.531-9.09,27.078,4.068,22.381
			c13.16-4.697,18.188-12.156,19.299-13.814C344.061,65.679,345.688,60.845,343.25,61.535z M148.593,52.14
			c0,0,2.211,0.512-6.875,6.563C122.42,71.548,136.912,52.209,148.593,52.14z M29.843,121.147c0,0-2.364,2.027-2.07-1.887
			c0.497-6.586,8.819-26.721,22.476-37.211c0,0,1.923-1.656,1.973-0.229C52.27,83.247,34.476,118.8,29.843,121.147z"/>
	</g>
	<g>
		<path fill="#53C0EF" d="M134.52,107.046c0,4.273-2.681,7.834-7.165,7.834c-4.483,0-7.164-3.561-7.164-7.834
			c0-4.275,2.681-7.836,7.164-7.836C131.839,99.21,134.52,102.771,134.52,107.046z M122.81,107.046c0,2.869,1.341,5.697,4.546,5.697
			s4.546-2.828,4.546-5.697c0-2.871-1.341-5.699-4.546-5.699S122.81,104.175,122.81,107.046z"/>
		<path fill="#53C0EF" d="M140.052,99.565h6.2c4.609,0,6.599,3.354,6.599,7.48c0,4.125-1.99,7.479-6.599,7.479h-6.2V99.565z
			 M142.67,112.388h2.577c4.106,0,4.986-2.348,4.986-5.342c0-2.996-0.88-5.342-4.986-5.342h-2.577V112.388z"/>
		<path fill="#53C0EF" d="M171.854,107.046c0,4.273-2.682,7.834-7.165,7.834c-4.482,0-7.164-3.561-7.164-7.834
			c0-4.275,2.681-7.836,7.164-7.836C169.172,99.21,171.854,102.771,171.854,107.046z M160.143,107.046
			c0,2.869,1.341,5.697,4.545,5.697c3.206,0,4.546-2.828,4.546-5.697c0-2.871-1.341-5.699-4.546-5.699
			C161.484,101.347,160.143,104.175,160.143,107.046z"/>
		<path fill="#53C0EF" d="M177.281,99.565h2.768l6.826,11.02h0.043v-11.02h2.494v14.959h-2.768l-6.807-11h-0.063v11h-2.494V99.565z"
			/>
		<path fill="#53C0EF" d="M194.23,99.565h12.109v2.264h-4.756v12.695h-2.619v-12.695h-4.734V99.565z"/>
		<path fill="#53C0EF" d="M224.754,107.046c0,4.273-2.682,7.834-7.166,7.834c-4.482,0-7.162-3.561-7.162-7.834
			c0-4.275,2.68-7.836,7.162-7.836C222.072,99.21,224.754,102.771,224.754,107.046z M213.043,107.046
			c0,2.869,1.34,5.697,4.545,5.697c3.207,0,4.547-2.828,4.547-5.697c0-2.871-1.34-5.699-4.547-5.699
			C214.383,101.347,213.043,104.175,213.043,107.046z"/>
		<path fill="#53C0EF" d="M230.285,99.565h2.619v12.697h7.605v2.262h-10.225V99.565z"/>
		<path fill="#53C0EF" d="M258.986,107.046c0,4.273-2.682,7.834-7.164,7.834s-7.164-3.561-7.164-7.834
			c0-4.275,2.682-7.836,7.164-7.836S258.986,102.771,258.986,107.046z M247.275,107.046c0,2.869,1.342,5.697,4.547,5.697
			s4.545-2.828,4.545-5.697c0-2.871-1.34-5.699-4.545-5.699S247.275,104.175,247.275,107.046z"/>
		<path fill="#53C0EF" d="M277.57,114.524h-1.676l-0.398-1.76c-1.406,1.592-2.682,2.115-4.506,2.115
			c-4.48,0-7.164-3.561-7.164-7.834c0-4.275,2.684-7.836,7.164-7.836c3.27,0,6.014,1.74,6.41,5.113h-2.555
			c-0.252-1.971-1.969-2.977-3.855-2.977c-3.205,0-4.545,2.828-4.545,5.699c0,2.869,1.34,5.697,4.545,5.697
			c2.684,0.041,4.148-1.572,4.193-4.105h-3.984v-1.99h6.371V114.524z"/>
		<path fill="#53C0EF" d="M283.564,99.565h2.617v14.959h-2.617V99.565z"/>
		<path fill="#53C0EF" d="M296.531,99.565h2.785l5.76,14.959h-2.807l-1.404-3.959h-5.969l-1.404,3.959h-2.701L296.531,99.565z
			 M295.607,108.575h4.568l-2.242-6.432h-0.063L295.607,108.575z"/>
	</g>
</g>
</svg>
