<?xml version="1.0" encoding="utf-8"?>
<!-- Generator: Adobe Illustrator 16.0.0, SVG Export Plug-In . SVG Version: 6.00 Build 0)  -->
<!DOCTYPE svg PUBLIC "-//W3C//DTD SVG 1.1//EN" "http://www.w3.org/Graphics/SVG/1.1/DTD/svg11.dtd">
<svg version="1.1" id="Camada_1" xmlns="http://www.w3.org/2000/svg" xmlns:xlink="http://www.w3.org/1999/xlink" x="0px" y="0px"
	 width="940px" height="50px" viewBox="0 0 940 50" enable-background="new 0 0 940 50" xml:space="preserve">
<g>
	<line fill="none" stroke="#54C2F0" stroke-width="0.75" stroke-miterlimit="10" x1="0" y1="23.727" x2="940" y2="23.727"/>
	<ellipse fill="#FFFFFF" stroke="#54C2F0" stroke-width="0.75" stroke-miterlimit="10" cx="470" cy="25" rx="24.752" ry="24.41"/>
	<path fill="#52C2F0" d="M482.568,17.344c0-1.015-0.891-1.904-1.906-1.904l-21.339-0.004c-1.049,0-1.904,0.854-1.905,1.905
		l0.003,13.636c0,0.51,0.199,0.988,0.56,1.348c0.358,0.361,0.837,0.559,1.346,0.559l21.339,0.004c1.05,0,1.904-0.854,1.904-1.904
		L482.568,17.344z M479.701,17.522l-9.788,7.573l-9.503-7.578L479.701,17.522z M459.506,30.801l-0.002-11.515l9.795,7.815
		c0.171,0.137,0.387,0.213,0.608,0.215c0.219,0,0.433-0.076,0.597-0.207l9.981-7.721l0.002,11.416L459.506,30.801z"/>
</g>
</svg>
