<?xml version="1.0" encoding="utf-8"?>
<!-- Generator: Adobe Illustrator 19.0.0, SVG Export Plug-In . SVG Version: 6.00 Build 0)  -->
<svg version="1.1" id="Layer_1" xmlns="http://www.w3.org/2000/svg" xmlns:xlink="http://www.w3.org/1999/xlink" x="0px" y="0px"
	 viewBox="0 0 36 17" style="enable-background:new 0 0 36 17;" xml:space="preserve">
<style type="text/css">
	.st0{fill:#54C2F0;}
</style>
<g id="XMLID_2_">
	<path id="XMLID_9_" class="st0" d="M35.9,2c0-1-0.8-1.8-1.8-1.8l-20.3,0C12.8,0.2,12,1,12,2l0,13c0,0.5,0.2,0.9,0.5,1.3
		c0.3,0.3,0.8,0.5,1.3,0.5l20.3,0c1,0,1.8-0.8,1.8-1.8L35.9,2z M14,14.8l0-12.6l19.9,0l0,12.6L14,14.8z"/>
	<path id="XMLID_6_" class="st0" d="M30.5,4.3l-6.6,5.1l-6.5-5.1C17.3,4.1,17,4,16.8,4c-0.2,0-0.5,0.2-0.6,0.3
		c-0.3,0.4-0.3,0.9,0.1,1.2l7.1,5.7c0.2,0.1,0.4,0.2,0.6,0.2c0.2,0,0.4-0.1,0.6-0.2l7.2-5.6C31.9,5.6,32,5.4,32,5.1
		c0-0.2,0-0.5-0.2-0.7C31.5,4,30.9,3.9,30.5,4.3z M16.5,5.4L16.5,5.4L16.5,5.4L16.5,5.4z"/>
	<path id="XMLID_5_" class="st0" d="M10.9,1.7c0-0.4-0.3-0.7-0.7-0.7H0.9c-0.4,0-0.7,0.3-0.7,0.7c0,0.2,0.1,0.4,0.2,0.5
		c0.1,0.1,0.3,0.2,0.5,0.2l9.2,0C10.5,2.4,10.9,2.1,10.9,1.7z"/>
	<path id="XMLID_4_" class="st0" d="M10.9,5.9c0-0.4-0.3-0.7-0.7-0.7l-5.6,0c-0.4,0-0.7,0.3-0.7,0.7c0,0.2,0.1,0.4,0.2,0.5
		c0.1,0.1,0.3,0.2,0.5,0.2h5.6C10.5,6.7,10.9,6.3,10.9,5.9z"/>
	<path id="XMLID_3_" class="st0" d="M10.2,9.5H7.2c-0.4,0-0.7,0.3-0.7,0.7c0,0.2,0.1,0.4,0.2,0.5c0.1,0.1,0.3,0.2,0.5,0.2h2.9
		c0.4,0,0.7-0.3,0.7-0.7C10.9,9.8,10.5,9.5,10.2,9.5z"/>
</g>
</svg>
