<?xml version="1.0" encoding="utf-8"?>
<!-- Generator: Adobe Illustrator 16.0.0, SVG Export Plug-In . SVG Version: 6.00 Build 0)  -->
<!DOCTYPE svg PUBLIC "-//W3C//DTD SVG 1.1//EN" "http://www.w3.org/Graphics/SVG/1.1/DTD/svg11.dtd">
<svg version="1.1" id="Camada_1" xmlns="http://www.w3.org/2000/svg" xmlns:xlink="http://www.w3.org/1999/xlink" x="0px" y="0px"
	 width="110px" height="29px" viewBox="0 0 110 29" enable-background="new 0 0 110 29" xml:space="preserve">
<g>
	<path fill="#6D6E71" d="M8.09,4.761h2.988v3.167H8.09v7.135c0,1.172,0.685,1.422,1.738,1.422c0.396,0,1.25,0,1.25,0v3.922H8.437
		c-4.478,0-5.183-1.477-5.183-5.486V7.928H0.293V4.761h2.961v-4.51H8.09V4.761z M12.166,3.287h4.839V0.251h-4.839V3.287z
		 M12.166,20.406h4.839V4.761h-4.839V20.406z M42.866,9.734v10.658h-4.59l0.009-1.809c-1.255,1.311-3.103,1.822-4.867,1.822
		c-2.813,0-5.04-1.426-5.04-4.465c0-4.811,5.242-4.442,8.595-5.124c0.825-0.172,1.284-0.457,1.284-1.366
		c0-1.108-1.344-1.53-2.337-1.53c-1.331,0-2.187,0.594-2.42,1.842h-4.525c0.086-1.936,1.002-3.185,2.308-3.953
		c1.31-0.739,3.013-1.022,4.697-1.022C39.481,4.787,42.866,5.552,42.866,9.734z M38.199,13.069
		c-0.684,0.426-1.936,0.512-2.991,0.793c-1.079,0.253-1.99,0.704-1.99,1.88c0,1.189,0.939,1.68,2.019,1.68
		C37.542,17.422,38.311,16.109,38.199,13.069z M59.212,12.287c0,4.148-1.96,8.119-6.601,8.119c-1.706,0-3.133-0.738-4.072-2.129
		h-0.054v2.115h-4.611V0.251h4.84v6.606h0.057c0.994-1.351,2.387-2.038,4.207-2.038C57.164,4.819,59.212,8.458,59.212,12.287z
		 M54.38,12.457c0-1.871-0.744-3.944-2.875-3.944c-1.316,0-2.966,0.906-2.966,3.944c0,2.582,0.746,4.26,2.933,4.26
		C53.636,16.717,54.38,14.472,54.38,12.457z M85.394,11.161c-2.215-0.487-5.463-0.743-5.463-2.131c0-1.029,1.281-1.109,2.081-1.109
		c0.597,0,1.139,0.107,1.537,0.365c0.396,0.254,0.621,0.656,0.621,1.283h4.472c-0.173-3.844-3.555-4.782-6.804-4.782
		c-2.903,0-6.739,0.967-6.739,4.518c0,3.99,3.813,4.074,6.856,4.841c0.854,0.202,2.359,0.421,2.359,1.565
		c0,1.168-1.343,1.566-2.272,1.566c-0.683,0-1.339-0.174-1.791-0.516c-0.484-0.371-0.799-0.906-0.799-1.648h-4.611
		c0.141,4.129,3.73,5.293,7.229,5.293c3.324,0,7.078-1.311,7.078-5.26C89.147,13.918,88.388,11.757,85.394,11.161z M100.456,11.161
		c-2.218-0.487-5.464-0.743-5.464-2.131c0-1.029,1.277-1.109,2.077-1.109c0.593,0,1.136,0.107,1.536,0.365
		c0.398,0.254,0.622,0.656,0.622,1.283h4.473c-0.169-3.844-3.555-4.782-6.802-4.782c-2.9,0-6.742,0.967-6.742,4.518
		c0,3.99,3.808,4.074,6.858,4.841c0.854,0.202,2.359,0.421,2.359,1.565c0,1.168-1.339,1.566-2.28,1.566
		c-0.679,0-1.334-0.174-1.785-0.516c-0.485-0.371-0.799-0.906-0.799-1.648h-4.611c0.146,4.129,3.725,5.293,7.226,5.293
		c3.332,0,7.088-1.311,7.088-5.26C104.212,13.918,103.445,11.757,100.456,11.161z M109.704,0.251h-4.84v2.97h4.84V0.251z
		 M104.864,4.748v15.658h4.84V4.748H104.864z M74.163,9.734v10.658h-4.586l0.008-1.809c-1.253,1.311-3.102,1.822-4.864,1.822
		c-2.817,0-5.041-1.426-5.041-4.465c0-4.811,5.238-4.442,8.595-5.124c0.82-0.172,1.279-0.457,1.279-1.366
		c0-1.108-1.343-1.53-2.334-1.53c-1.332,0-2.187,0.594-2.421,1.842h-4.521c0.085-1.936,1.001-3.185,2.307-3.953
		c1.305-0.739,3.013-1.022,4.694-1.022C70.78,4.787,74.163,5.552,74.163,9.734z M69.5,13.069c-0.685,0.426-1.935,0.512-2.991,0.793
		c-1.082,0.253-1.99,0.704-1.99,1.88c0,1.189,0.939,1.68,2.02,1.68C68.84,17.422,69.612,16.109,69.5,13.069z M26.395,4.834
		c-3.224,0.535-3.746,2.475-3.746,2.475V4.761h-4.696v15.646h4.836v-7.131c0-4.675,5.438-3.5,5.491-3.5v-5.01
		C27.566,4.766,26.94,4.741,26.395,4.834z"/>
	<path fill="#6D6E71" d="M6.393,24.969c-0.128-0.588-0.615-0.928-1.174-0.928c-1.015,0-1.445,0.85-1.445,1.684
		c0,0.842,0.431,1.688,1.445,1.688c0.708,0,1.157-0.547,1.229-1.229h0.364c-0.101,0.939-0.698,1.541-1.594,1.541
		c-1.208,0-1.811-0.951-1.811-2c0-1.045,0.603-1.994,1.811-1.994c0.726,0,1.443,0.434,1.54,1.238H6.393z M10.764,23.73
		c1.201,0,1.805,0.949,1.805,1.994c0,1.049-0.604,2-1.805,2c-1.208,0-1.809-0.951-1.809-2C8.955,24.68,9.556,23.73,10.764,23.73z
		 M10.764,27.412c1.008,0,1.437-0.846,1.437-1.688c0-0.834-0.429-1.684-1.437-1.684c-1.015,0-1.442,0.85-1.442,1.684
		C9.321,26.566,9.749,27.412,10.764,27.412z M14.913,23.811h0.537l1.326,3.359l1.319-3.359h0.536v3.834h-0.364v-3.313h-0.012
		l-1.308,3.313h-0.346l-1.311-3.313h-0.015v3.313h-0.364V23.811z M21.147,23.811h0.365v2.373c-0.007,0.889,0.418,1.229,1.12,1.229
		c0.709,0,1.135-0.34,1.127-1.229v-2.373h0.368v2.451c0,0.791-0.426,1.463-1.495,1.463c-1.063,0-1.485-0.672-1.485-1.463V23.811z
		 M26.644,23.811h0.408l2.232,3.242h0.01v-3.242h0.368v3.834h-0.41L27.02,24.4h-0.011v3.244h-0.365V23.811z M32.243,23.811h0.365
		v3.834h-0.365V23.811z M38,24.969c-0.129-0.588-0.618-0.928-1.176-0.928c-1.016,0-1.448,0.85-1.448,1.684
		c0,0.842,0.433,1.688,1.448,1.688c0.706,0,1.159-0.547,1.227-1.229h0.364c-0.098,0.939-0.696,1.541-1.591,1.541
		c-1.209,0-1.81-0.951-1.81-2c0-1.045,0.601-1.994,1.81-1.994c0.722,0,1.442,0.434,1.541,1.238H38z M41.886,23.811h0.408
		l1.504,3.834h-0.392l-0.47-1.193h-1.743l-0.463,1.193h-0.392L41.886,23.811z M41.306,26.141h1.511l-0.743-1.965L41.306,26.141z
		 M49.153,26.184c-0.101,0.939-0.697,1.541-1.591,1.541h-0.008l-0.177,0.23c0.252-0.049,0.623,0,0.623,0.334
		c0,0.326-0.317,0.459-0.594,0.459c-0.169,0-0.347-0.035-0.504-0.113l0.076-0.168c0.093,0.037,0.27,0.07,0.426,0.07
		c0.149,0,0.284-0.068,0.284-0.227c0-0.129-0.106-0.205-0.233-0.205c-0.12,0-0.207,0.012-0.271,0.041l-0.088-0.078l0.273-0.354
		c-1.082-0.092-1.617-0.996-1.617-1.99c0-1.045,0.597-1.994,1.81-1.994c0.722,0,1.442,0.434,1.538,1.238h-0.364
		c-0.13-0.588-0.618-0.928-1.174-0.928c-1.019,0-1.446,0.85-1.446,1.684c0,0.842,0.428,1.688,1.446,1.688
		c0.708,0,1.155-0.547,1.228-1.229H49.153z M52.624,23.811h0.406l1.502,3.834h-0.39l-0.467-1.193h-1.744l-0.463,1.193h-0.394
		L52.624,23.811z M53.647,22.861c-0.038,0.248-0.187,0.51-0.466,0.51c-0.146,0-0.278-0.061-0.403-0.117
		c-0.124-0.059-0.229-0.133-0.321-0.133c-0.161,0-0.287,0.098-0.287,0.277h-0.206c0.029-0.256,0.193-0.518,0.475-0.518
		c0.159,0,0.285,0.059,0.404,0.121c0.117,0.059,0.227,0.115,0.322,0.115c0.166,0,0.236-0.115,0.277-0.256H53.647z M52.044,26.141
		h1.509l-0.743-1.965L52.044,26.141z M58.274,23.73c1.203,0,1.805,0.949,1.805,1.994c0,1.049-0.602,2-1.805,2
		c-1.205,0-1.809-0.951-1.809-2C56.466,24.68,57.069,23.73,58.274,23.73z M58.274,27.412c1.01,0,1.441-0.846,1.441-1.688
		c0-0.834-0.432-1.684-1.441-1.684c-1.012,0-1.44,0.85-1.44,1.684C56.834,26.566,57.263,27.412,58.274,27.412z M66.638,23.811h0.365
		v3.834h-0.365V23.811z M69.587,23.811h0.408l2.232,3.242h0.013v-3.242h0.366v3.834h-0.409L69.966,24.4h-0.015v3.244h-0.364V23.811z
		 M74.746,23.811h3.039v0.313h-1.337v3.521h-0.364v-3.521h-1.338V23.811z M79.931,23.811h2.648v0.313h-2.28v1.383h2.136v0.313
		h-2.136v1.512h2.309v0.314h-2.677V23.811z M88.181,27.645h-0.262l-0.051-0.699h-0.011c-0.258,0.549-0.773,0.779-1.325,0.779
		c-1.209,0-1.809-0.951-1.809-2c0-1.045,0.6-1.994,1.809-1.994c0.805,0,1.461,0.434,1.601,1.271h-0.365
		c-0.05-0.441-0.506-0.961-1.235-0.961c-1.017,0-1.444,0.85-1.444,1.684c0,0.842,0.428,1.688,1.444,1.688
		c0.847,0,1.341-0.596,1.325-1.408h-1.305v-0.311h1.628V27.645z M90.67,23.811h1.757c0.633,0,1.164,0.309,1.164,1.002
		c0,0.479-0.254,0.877-0.746,0.973v0.014c0.5,0.063,0.645,0.406,0.668,0.863c0.019,0.26,0.019,0.787,0.18,0.982h-0.401
		c-0.092-0.15-0.092-0.436-0.103-0.596c-0.033-0.539-0.075-1.135-0.768-1.109h-1.386v1.705H90.67V23.811z M91.035,25.631h1.363
		c0.446,0,0.826-0.279,0.826-0.748c0-0.465-0.278-0.76-0.826-0.76h-1.363V25.631z M97.162,23.811h0.407l1.505,3.834h-0.393
		l-0.47-1.193h-1.743l-0.461,1.193h-0.392L97.162,23.811z M96.579,26.141h1.513l-0.743-1.965L96.579,26.141z M101.21,23.811h1.325
		c1.153,0.027,1.761,0.66,1.761,1.914c0,1.26-0.607,1.893-1.761,1.92h-1.325V23.811z M101.576,27.33h0.776
		c1.102,0.004,1.58-0.457,1.58-1.605c0-1.143-0.479-1.605-1.58-1.602h-0.776V27.33z M107.796,23.811h0.407l1.504,3.834h-0.392
		l-0.466-1.193h-1.748l-0.46,1.193h-0.393L107.796,23.811z M107.217,26.141h1.509l-0.74-1.965L107.217,26.141z"/>
</g>
</svg>
