<?xml version="1.0" encoding="utf-8"?>
<!-- Generator: Adobe Illustrator 16.0.0, SVG Export Plug-In . SVG Version: 6.00 Build 0)  -->
<!DOCTYPE svg PUBLIC "-//W3C//DTD SVG 1.1//EN" "http://www.w3.org/Graphics/SVG/1.1/DTD/svg11.dtd">
<svg version="1.1" id="Camada_1" xmlns="http://www.w3.org/2000/svg" xmlns:xlink="http://www.w3.org/1999/xlink" x="0px" y="0px"
	 width="940px" height="50px" viewBox="0 0 940 50" enable-background="new 0 0 940 50" xml:space="preserve">
<g>
	<line fill="none" stroke="#54C2F0" stroke-width="0.75" stroke-miterlimit="10" x1="0" y1="24.086" x2="940" y2="24.086"/>
	<ellipse fill="#FFFFFF" stroke="#54C2F0" stroke-width="0.75" stroke-miterlimit="10" cx="470" cy="25" rx="24.752" ry="24.293"/>
	<path fill="#52C2F0" d="M478.497,22.448c1.131-3.01,2.68-7.134-0.678-8.979c-1.183-0.648-2.321-0.964-3.482-0.964
		c-1.256,0-2.271,0.374-3.088,0.677c-0.487,0.179-0.947,0.349-1.249,0.349s-0.762-0.17-1.251-0.35
		c-0.815-0.302-1.83-0.676-3.086-0.676c-1.161,0-2.3,0.315-3.482,0.964c-3.358,1.845-1.809,5.97-0.677,8.979
		c0.357,0.951,0.694,1.849,0.75,2.377c0.09,0.867-0.007,1.943-0.111,3.102c-0.159,1.74-0.323,3.542,0.138,5.016
		c0.779,2.488,3.272,4.302,3.378,4.377c0.277,0.201,0.699,0.226,0.998,0.068c0.315-0.162,0.481-0.48,0.413-0.793
		c-0.01-0.04-0.888-4.216,0.2-6.824c0.911-2.184,2.388-3.177,2.729-3.193c0.345,0.017,1.822,1.01,2.732,3.191
		c1.089,2.614,0.209,6.784,0.2,6.826c-0.067,0.313,0.099,0.633,0.413,0.793c0.134,0.069,0.287,0.105,0.443,0.105
		c0.202,0,0.399-0.061,0.555-0.172c0.105-0.077,2.6-1.893,3.378-4.379c0.46-1.47,0.298-3.27,0.139-5.02
		c-0.104-1.143-0.203-2.225-0.111-3.098C477.801,24.302,478.122,23.446,478.497,22.448z M476.121,28.044
		c0.147,1.614,0.299,3.282-0.082,4.501c-0.221,0.704-0.627,1.355-1.067,1.907c0.112-1.547,0.072-3.576-0.604-5.198
		c-0.98-2.353-2.898-4.192-4.367-4.192s-3.387,1.84-4.367,4.192c-0.677,1.622-0.716,3.651-0.604,5.198
		c-0.44-0.552-0.848-1.203-1.068-1.907c-0.381-1.217-0.229-2.885-0.082-4.499c0.109-1.209,0.214-2.354,0.109-3.356
		c-0.073-0.697-0.424-1.629-0.83-2.713c-0.952-2.536-2.257-6.01-0.048-7.224c0.896-0.491,1.73-0.73,2.553-0.73
		c0.899,0,1.698,0.294,2.406,0.556c0.626,0.229,1.273,0.47,1.931,0.47c0.658,0,1.306-0.24,1.936-0.473
		c0.704-0.259,1.503-0.553,2.401-0.553c0.822,0,1.657,0.239,2.554,0.73c2.208,1.214,0.903,4.688-0.051,7.227
		c-0.405,1.08-0.755,2.013-0.828,2.71C475.908,25.689,476.012,26.835,476.121,28.044z"/>
</g>
</svg>
