<?xml version="1.0" encoding="utf-8"?>
<!-- Generator: Adobe Illustrator 16.0.0, SVG Export Plug-In . SVG Version: 6.00 Build 0)  -->
<!DOCTYPE svg PUBLIC "-//W3C//DTD SVG 1.1//EN" "http://www.w3.org/Graphics/SVG/1.1/DTD/svg11.dtd">
<svg version="1.1" id="Camada_1" xmlns="http://www.w3.org/2000/svg" xmlns:xlink="http://www.w3.org/1999/xlink" x="0px" y="0px"
	 width="20px" height="20px" viewBox="0 0 20 20" enable-background="new 0 0 20 20" xml:space="preserve">
<g>
	<path fill="#52C2F0" d="M9.999,0.005c-5.467,0-9.9,4.434-9.9,9.9c0,1.849,0.507,3.576,1.389,5.058l-1.249,5.033l4.963-1.428
		c1.422,0.787,3.057,1.238,4.798,1.238c5.471,0,9.904-4.435,9.904-9.902C19.902,4.438,15.469,0.005,9.999,0.005z M10.112,18.165
		c-1.731,0-3.333-0.535-4.66-1.448l-2.824,0.813l0.724-2.909c-0.919-1.329-1.459-2.938-1.459-4.676c0-4.539,3.678-8.219,8.22-8.219
		c4.54,0,8.219,3.679,8.218,8.219C18.331,14.484,14.652,18.165,10.112,18.165z"/>
	<path fill="#52C2F0" d="M7.496,9.123C7.611,8.988,7.727,8.858,7.84,8.727c0.193-0.223,0.481-0.441,0.499-0.765
		c0.014-0.308-0.097-0.615-0.207-0.896C8.06,6.886,7.989,6.707,7.92,6.523c-0.125-0.328-0.288-0.789-0.47-0.98
		C7.207,5.28,6.784,5.226,6.453,5.385c0,0-1.944,0.936-1.349,2.803c0,0,1.159,5.269,6.988,6.354c0,0,2.094,0.295,2.654-0.976
		c0.119-0.273,0.203-0.655,0.182-0.957c-0.02-0.289-0.223-0.481-0.461-0.618c-0.309-0.175-0.582-0.339-0.932-0.511
		c-0.301-0.149-0.654-0.375-1.004-0.274c-0.254,0.071-0.438,0.306-0.613,0.489c-0.225,0.24-0.457,0.476-0.684,0.716
		C11.234,12.41,8.279,11.326,7.496,9.123z"/>
</g>
</svg>
