<?xml version="1.0" encoding="utf-8"?>
<!-- Generator: Adobe Illustrator 16.0.0, SVG Export Plug-In . SVG Version: 6.00 Build 0)  -->
<!DOCTYPE svg PUBLIC "-//W3C//DTD SVG 1.1//EN" "http://www.w3.org/Graphics/SVG/1.1/DTD/svg11.dtd">
<svg version="1.1" id="Camada_1" xmlns="http://www.w3.org/2000/svg" xmlns:xlink="http://www.w3.org/1999/xlink" x="0px" y="0px"
	 width="18px" height="23px" viewBox="0 0 18 23" enable-background="new 0 0 18 23" xml:space="preserve">
<path fill="#0069B4" d="M16.634,9.165c1.016-2.756,2.407-6.53-0.608-8.219c-1.063-0.594-2.086-0.883-3.129-0.883
	c-1.128,0-2.039,0.343-2.774,0.62C9.685,0.847,9.271,1.002,9.001,1.002c-0.271,0-0.685-0.155-1.124-0.32
	C7.145,0.406,6.232,0.063,5.104,0.063c-1.043,0-2.066,0.289-3.128,0.883C-1.041,2.636,0.351,6.41,1.367,9.165
	c0.321,0.87,0.624,1.692,0.674,2.176c0.081,0.793-0.006,1.776-0.1,2.836c-0.143,1.594-0.29,3.242,0.124,4.592
	c0.7,2.277,2.94,3.938,3.035,4.008c0.249,0.182,0.627,0.205,0.897,0.063c0.283-0.148,0.432-0.441,0.37-0.727
	c-0.008-0.039-0.797-3.857,0.181-6.248c0.817-1.996,2.145-2.906,2.451-2.922c0.31,0.016,1.637,0.926,2.454,2.922
	c0.979,2.393,0.188,6.209,0.18,6.248c-0.061,0.285,0.089,0.578,0.371,0.727c0.121,0.063,0.259,0.096,0.398,0.096
	c0.182,0,0.359-0.057,0.498-0.158c0.095-0.07,2.336-1.73,3.035-4.008c0.413-1.346,0.267-2.992,0.125-4.594
	c-0.094-1.047-0.183-2.035-0.102-2.834C16.009,10.86,16.297,10.077,16.634,9.165z M14.499,14.285
	c0.133,1.479,0.269,3.004-0.073,4.119c-0.198,0.645-0.563,1.24-0.959,1.746c0.101-1.414,0.065-3.273-0.543-4.758
	c-0.881-2.152-2.604-3.837-3.923-3.837c-1.32,0-3.043,1.685-3.924,3.837c-0.608,1.484-0.644,3.344-0.542,4.76
	c-0.396-0.506-0.761-1.104-0.959-1.748c-0.342-1.113-0.206-2.641-0.074-4.117C3.6,13.18,3.693,12.133,3.6,11.216
	c-0.065-0.639-0.38-1.492-0.746-2.483c-0.855-2.321-2.026-5.5-0.042-6.611c0.805-0.45,1.555-0.67,2.293-0.67
	c0.808,0,1.525,0.27,2.161,0.509C7.828,2.172,8.41,2.391,9.001,2.391s1.172-0.219,1.738-0.433c0.633-0.237,1.35-0.507,2.157-0.507
	c0.738,0,1.489,0.22,2.294,0.67c1.984,1.111,0.812,4.29-0.045,6.615c-0.364,0.988-0.679,1.841-0.744,2.48
	C14.308,12.131,14.4,13.178,14.499,14.285z"/>
</svg>
