<?xml version="1.0" encoding="utf-8"?>
<!-- Generator: Adobe Illustrator 16.0.0, SVG Export Plug-In . SVG Version: 6.00 Build 0)  -->
<!DOCTYPE svg PUBLIC "-//W3C//DTD SVG 1.1//EN" "http://www.w3.org/Graphics/SVG/1.1/DTD/svg11.dtd">
<svg version="1.1" id="Camada_1" xmlns="http://www.w3.org/2000/svg" xmlns:xlink="http://www.w3.org/1999/xlink" x="0px" y="0px"
	 width="32px" height="25px" viewBox="0 0 32 25" enable-background="new 0 0 32 25" xml:space="preserve">
<path fill="#0069B4" d="M0.897,24.532c1.211-0.338,2.633-0.452,4.205-0.324c1.99,0.161,3.488-0.275,4.451-1.299
	c0.59-0.627,0.875-1.371,1.008-2.023c1.477,0.644,3.26,0.365,4.469-0.844l8.09-8.089c0.115-0.116,0.217-0.238,0.314-0.363
	c0.725,0.304,2.904,1.12,2.904,1.12c0.18,0.069,0.385,0.026,0.521-0.111l1.242-1.242l2.93,2.93l0.523-0.522l-2.93-2.93l1.242-1.242
	c0.137-0.138,0.18-0.343,0.111-0.523c0,0-1.145-3.053-1.23-3.139l-5.318-5.318c-0.191-0.192-0.502-0.192-0.693,0L17.88,5.467
	c-0.127,0.128-0.168,0.309-0.125,0.472c-0.119,0.093-0.236,0.192-0.346,0.302l-8.09,8.09c-1.578,1.576-1.578,4.134,0,5.71
	c0.107,0.107,0.219,0.206,0.336,0.299c-0.07,0.581-0.273,1.321-0.822,1.901c-0.748,0.791-1.977,1.124-3.652,0.987
	c-1.766-0.143-3.369,0.003-4.736,0.415L0.897,24.532z M18.921,5.815l4.164-4.163l4.586,4.587l-4.164,4.163L18.921,5.815z
	 M26.394,11.679l-1.949-0.75l3.754-3.754l0.75,1.948L26.394,11.679z"/>
</svg>
