<?xml version="1.0" encoding="utf-8"?>
<!-- Generator: Adobe Illustrator 16.0.0, SVG Export Plug-In . SVG Version: 6.00 Build 0)  -->
<!DOCTYPE svg PUBLIC "-//W3C//DTD SVG 1.1//EN" "http://www.w3.org/Graphics/SVG/1.1/DTD/svg11.dtd">
<svg version="1.1" id="Camada_1" xmlns="http://www.w3.org/2000/svg" xmlns:xlink="http://www.w3.org/1999/xlink" x="0px" y="0px"
	 width="25px" height="26px" viewBox="0 0 25 26" enable-background="new 0 0 25 26" xml:space="preserve">
<g>
	<path fill="#0069B4" d="M19.194,6.126v1.305h-3.38V2.144c0-0.224-0.182-0.404-0.405-0.404h-3.771
		c-0.164-0.734-0.818-1.283-1.602-1.283c-0.907,0-1.643,0.735-1.643,1.643s0.735,1.643,1.643,1.643c0.751,0,1.383-0.504,1.578-1.192
		h3.389v8.708h0.811V8.151h3.38v1.305h0.956v2.52h0.157v-2.52h1.148v2.52h0.157v-2.52h1.147v2.52h0.157v-2.52h1.148v2.52h0.157
		v-2.52h0.686v-3.33H19.194z M10.037,3.247c-0.634,0-1.147-0.515-1.147-1.148s0.514-1.147,1.147-1.147s1.147,0.514,1.147,1.147
		S10.671,3.247,10.037,3.247z M20.455,8.781h-0.45v-1.53h0.45V8.781z M21.76,8.781h-0.45v-1.53h0.45V8.781z M23.064,8.781h-0.45
		v-1.53h0.45V8.781z M24.369,8.781H23.92v-1.53h0.449V8.781z"/>
	<path fill="#0069B4" d="M23.196,18.126l-7.233-2.346h-5.727L1.954,7.04C1.544,6.606,0.86,6.587,0.428,6.998
		c-0.434,0.409-0.451,1.094-0.041,1.526l8.92,9.415h6.313l6.909,2.241c0.111,0.036,0.223,0.054,0.334,0.054
		c0.455,0,0.879-0.291,1.026-0.748C24.074,18.92,23.764,18.311,23.196,18.126z"/>
	<path fill="#0069B4" d="M6.75,9.484l4.099,4.824h5.812l5.33,2.391c0.145,0.064,0.295,0.094,0.442,0.094
		c0.412,0,0.807-0.237,0.985-0.639c0.244-0.543,0.001-1.183-0.543-1.427l-5.753-2.578h-5.274L8.396,8.086
		C8.01,7.632,7.329,7.576,6.874,7.962C6.42,8.348,6.364,9.03,6.75,9.484z"/>
	<circle fill="#0069B4" cx="5.773" cy="6.046" r="1.72"/>
	<polygon fill="#0069B4" points="15.438,18.5 9.361,18.5 9.361,24.936 3.32,24.936 3.32,25.543 21.479,25.543 21.479,24.936 
		15.438,24.936 	"/>
</g>
</svg>
