<?xml version="1.0" encoding="utf-8"?>
<!-- Generator: Adobe Illustrator 16.0.0, SVG Export Plug-In . SVG Version: 6.00 Build 0)  -->
<!DOCTYPE svg PUBLIC "-//W3C//DTD SVG 1.1//EN" "http://www.w3.org/Graphics/SVG/1.1/DTD/svg11.dtd">
<svg version="1.1" id="Camada_1" xmlns="http://www.w3.org/2000/svg" xmlns:xlink="http://www.w3.org/1999/xlink" x="0px" y="0px"
	 width="18px" height="25px" viewBox="0 0 18 25" enable-background="new 0 0 18 25" xml:space="preserve">
<path fill="#0069B4" d="M15.889,1.341c-1.008-0.635-1.971-0.945-2.946-0.945c-1.058,0-1.938,0.373-2.646,0.674
	C9.794,1.283,9.358,1.468,9,1.468S8.207,1.283,7.703,1.07C6.995,0.769,6.115,0.396,5.058,0.396c-0.976,0-1.938,0.31-2.945,0.945
	c-2.781,1.755-1.431,5.883-0.444,8.898c0.058,0.178,0.114,0.351,0.169,0.521H1.76v5.016h6.002v1.08H3.538v1.27h4.224v0.889H4.567
	v1.271h3.194v0.889H5.834v1.27h1.928v0.889H7.18v1.271h3.641v-1.271h-0.582v-0.889h1.928v-1.27h-1.928v-0.889h3.193v-1.271h-3.193
	v-0.889h4.223v-1.27h-4.223v-1.08h6.001V10.76h-0.076c0.055-0.171,0.11-0.344,0.169-0.522C17.318,7.224,18.668,3.095,15.889,1.341z
	 M15.121,10.034c-0.08,0.251-0.156,0.492-0.229,0.726H3.086c-0.072-0.234-0.148-0.474-0.229-0.726
	C2.016,7.381,0.861,3.747,2.976,2.372c0.817-0.532,1.589-0.79,2.356-0.79c0.838,0,1.55,0.311,2.178,0.585
	c0.517,0.226,1.004,0.438,1.479,0.438c0.477,0,0.964-0.213,1.48-0.438c0.628-0.274,1.34-0.585,2.178-0.585
	c0.768,0,1.538,0.258,2.355,0.79C17.117,3.747,15.963,7.381,15.121,10.034z"/>
</svg>
