<?xml version="1.0" encoding="utf-8"?>
<!-- Generator: Adobe Illustrator 16.0.0, SVG Export Plug-In . SVG Version: 6.00 Build 0)  -->
<!DOCTYPE svg PUBLIC "-//W3C//DTD SVG 1.1//EN" "http://www.w3.org/Graphics/SVG/1.1/DTD/svg11.dtd">
<svg version="1.1" id="Camada_1" xmlns="http://www.w3.org/2000/svg" xmlns:xlink="http://www.w3.org/1999/xlink" x="0px" y="0px"
	 width="69px" height="70px" viewBox="0 0 69 70" enable-background="new 0 0 69 70" xml:space="preserve">
<path fill="#52C2F0" d="M55.704,28.513c2.822-7.654,6.687-18.137-1.691-22.828c-2.949-1.65-5.792-2.453-8.689-2.453
	c-3.134,0-5.666,0.953-7.708,1.722C36.4,5.41,35.254,5.84,34.501,5.84c-0.754,0-1.9-0.431-3.122-0.89
	c-2.034-0.766-4.566-1.719-7.7-1.719c-2.898,0-5.741,0.803-8.69,2.453c-8.38,4.692-4.514,15.176-1.69,22.83
	c0.892,2.417,1.733,4.7,1.872,6.045c0.226,2.204-0.017,4.936-0.277,7.879c-0.396,4.43-0.806,9.008,0.344,12.756
	c1.944,6.326,8.167,10.938,8.43,11.131c0.69,0.506,1.744,0.572,2.491,0.174c0.786-0.412,1.2-1.225,1.029-2.018
	c-0.022-0.105-2.215-10.717,0.501-17.354c2.271-5.549,5.957-8.072,6.809-8.117c0.86,0.045,4.546,2.568,6.817,8.117
	c2.719,6.643,0.522,17.246,0.5,17.354c-0.168,0.795,0.245,1.605,1.031,2.018c0.335,0.176,0.717,0.268,1.105,0.268
	c0.505,0,0.997-0.156,1.384-0.441c0.264-0.193,6.488-4.807,8.43-11.131c1.148-3.738,0.742-8.313,0.347-12.762
	c-0.26-2.908-0.506-5.654-0.279-7.874C53.968,33.223,54.77,31.049,55.704,28.513z M49.775,42.74
	c0.367,4.102,0.746,8.344-0.205,11.441c-0.55,1.789-1.565,3.445-2.664,4.852c0.279-3.934,0.182-9.096-1.508-13.221
	c-2.446-5.977-7.233-10.657-10.897-10.657c-3.665,0-8.453,4.68-10.899,10.657c-1.688,4.125-1.786,9.289-1.506,13.221
	c-1.099-1.404-2.115-3.061-2.665-4.852c-0.95-3.094-0.572-7.334-0.206-11.438c0.274-3.078,0.534-5.986,0.274-8.533
	c-0.183-1.774-1.057-4.144-2.072-6.898c-2.376-6.448-5.631-15.279-0.119-18.365c2.235-1.251,4.319-1.859,6.371-1.859
	c2.244,0,4.236,0.748,6.003,1.412c1.563,0.588,3.179,1.196,4.819,1.196c1.642,0,3.257-0.608,4.83-1.201
	c1.757-0.659,3.749-1.407,5.992-1.407c2.052,0,4.136,0.608,6.372,1.859c5.511,3.086,2.255,11.917-0.126,18.374
	c-1.012,2.745-1.886,5.115-2.066,6.89C49.242,36.756,49.502,39.662,49.775,42.74z"/>
</svg>
