<?xml version="1.0" encoding="utf-8"?>
<!-- Generator: Adobe Illustrator 16.0.0, SVG Export Plug-In . SVG Version: 6.00 Build 0)  -->
<!DOCTYPE svg PUBLIC "-//W3C//DTD SVG 1.1//EN" "http://www.w3.org/Graphics/SVG/1.1/DTD/svg11.dtd">
<svg version="1.1" id="Camada_1" xmlns="http://www.w3.org/2000/svg" xmlns:xlink="http://www.w3.org/1999/xlink" x="0px" y="0px"
	 width="69px" height="70px" viewBox="0 0 69 70" enable-background="new 0 0 69 70" xml:space="preserve">
<g>
	<path fill="#52C2F0" d="M53.096,15.906v3.625h-9.391V4.844c0-0.621-0.504-1.125-1.125-1.125H32.107
		c-0.456-2.039-2.273-3.563-4.448-3.563c-2.521,0-4.563,2.042-4.563,4.563c0,2.52,2.043,4.561,4.563,4.561
		c2.086,0,3.841-1.4,4.385-3.312h9.411v24.188h2.25v-8.625h9.391v3.624h2.656v7h0.436v-7h3.189v7h0.438v-7h3.188v7h0.438v-7h3.189v7
		h0.436v-7h1.906v-9.25H53.096z M27.659,7.908c-1.761,0-3.188-1.429-3.188-3.188c0-1.762,1.428-3.189,3.188-3.189
		c1.76,0,3.188,1.428,3.188,3.189C30.847,6.479,29.419,7.908,27.659,7.908z M56.596,23.281h-1.25v-4.25h1.25V23.281z M60.221,23.281
		h-1.25v-4.25h1.25V23.281z M63.846,23.281h-1.25v-4.25h1.25V23.281z M67.471,23.281h-1.248v-4.25h1.248V23.281z"/>
	<path fill="#52C2F0" d="M64.211,49.241l-20.094-6.518H28.21L5.207,18.443c-1.139-1.203-3.038-1.256-4.241-0.115
		c-1.203,1.139-1.254,3.039-0.114,4.241l24.778,26.155h17.539l19.191,6.225c0.309,0.1,0.619,0.146,0.928,0.146
		c1.264,0,2.441-0.807,2.852-2.074C66.65,51.444,65.787,49.751,64.211,49.241z"/>
	<path fill="#52C2F0" d="M18.528,25.235l11.384,13.401h16.143l14.809,6.639c0.398,0.18,0.816,0.264,1.227,0.264
		c1.145,0,2.24-0.66,2.738-1.773c0.678-1.512,0.002-3.287-1.51-3.965l-15.98-7.164h-14.65L23.101,21.35
		c-1.072-1.263-2.964-1.417-4.229-0.345C17.609,22.078,17.456,23.972,18.528,25.235z"/>
	<circle fill="#52C2F0" cx="15.814" cy="15.684" r="4.778"/>
	<polygon fill="#52C2F0" points="42.658,50.28 25.783,50.28 25.783,68.155 9.002,68.155 9.002,69.843 59.439,69.843 59.439,68.155 
		42.658,68.155 	"/>
</g>
</svg>
