<?xml version="1.0" encoding="utf-8"?>
<!-- Generator: Adobe Illustrator 16.0.0, SVG Export Plug-In . SVG Version: 6.00 Build 0)  -->
<!DOCTYPE svg PUBLIC "-//W3C//DTD SVG 1.1//EN" "http://www.w3.org/Graphics/SVG/1.1/DTD/svg11.dtd">
<svg version="1.1" id="Camada_1" xmlns="http://www.w3.org/2000/svg" xmlns:xlink="http://www.w3.org/1999/xlink" x="0px" y="0px"
	 width="78px" height="60px" viewBox="0 0 78 60" enable-background="new 0 0 78 60" xml:space="preserve">
<path fill="#52C2F0" d="M1.243,60.081c3.03-0.846,6.583-1.131,10.514-0.813c4.977,0.404,8.721-0.688,11.127-3.246
	c1.477-1.568,2.188-3.428,2.521-5.059c3.693,1.609,8.148,0.912,11.17-2.109L56.8,28.631c0.289-0.289,0.545-0.594,0.787-0.907
	c1.813,0.759,7.26,2.8,7.26,2.8c0.453,0.174,0.965,0.064,1.308-0.279l3.104-3.104l7.324,7.325l1.306-1.307l-7.323-7.324l3.105-3.104
	c0.342-0.344,0.451-0.856,0.277-1.308c0,0-2.857-7.633-3.072-7.847L57.579,0.279c-0.479-0.479-1.256-0.479-1.734,0l-12.143,12.14
	c-0.318,0.32-0.42,0.771-0.313,1.18c-0.299,0.233-0.59,0.48-0.866,0.756L22.299,34.579c-3.943,3.941-3.942,10.334,0,14.275
	c0.269,0.27,0.549,0.516,0.838,0.746c-0.172,1.453-0.68,3.305-2.053,4.754c-1.871,1.979-4.942,2.811-9.13,2.469
	c-4.416-0.357-8.422,0.006-11.843,1.037L1.243,60.081z M46.304,13.287L56.712,2.88l11.466,11.467L57.771,24.754L46.304,13.287z
	 M64.983,27.947l-4.871-1.873l9.387-9.387l1.873,4.87L64.983,27.947z"/>
</svg>
