<?xml version="1.0" encoding="utf-8"?>
<!-- Generator: Adobe Illustrator 16.0.0, SVG Export Plug-In . SVG Version: 6.00 Build 0)  -->
<!DOCTYPE svg PUBLIC "-//W3C//DTD SVG 1.1//EN" "http://www.w3.org/Graphics/SVG/1.1/DTD/svg11.dtd">
<svg version="1.1" id="Camada_1" xmlns="http://www.w3.org/2000/svg" xmlns:xlink="http://www.w3.org/1999/xlink" x="0px" y="0px"
	 width="50px" height="50px" viewBox="0 0 50 50" enable-background="new 0 0 50 50" xml:space="preserve">
<g>
	<circle fill="#FFFFFF" stroke="#54C2F0" stroke-width="0.75" stroke-miterlimit="10" cx="25" cy="25" r="24.381"/>
	<path fill="#52C2F0" d="M33.369,22.439c1.113-3.021,2.639-7.159-0.668-9.011c-1.164-0.65-2.285-0.967-3.428-0.967
		c-1.238,0-2.238,0.375-3.043,0.678c-0.48,0.18-0.934,0.351-1.23,0.351c-0.297,0-0.751-0.171-1.232-0.352
		c-0.802-0.303-1.803-0.677-3.04-0.677c-1.144,0-2.266,0.316-3.43,0.967c-3.309,1.852-1.782,5.992-0.667,9.013
		c0.352,0.955,0.685,1.854,0.739,2.387c0.089,0.869-0.006,1.947-0.109,3.107c-0.157,1.75-0.318,3.557,0.136,5.037
		c0.767,2.496,3.222,4.318,3.327,4.393c0.273,0.201,0.688,0.229,0.982,0.07c0.311-0.164,0.474-0.484,0.407-0.797
		c-0.01-0.041-0.874-4.23,0.197-6.85c0.898-2.189,2.352-3.187,2.688-3.204c0.339,0.018,1.796,1.015,2.689,3.204
		c1.074,2.623,0.209,6.809,0.201,6.85c-0.068,0.316,0.096,0.633,0.404,0.797c0.133,0.068,0.283,0.104,0.438,0.104
		c0.199,0,0.393-0.063,0.547-0.174c0.102-0.074,2.559-1.896,3.328-4.393c0.451-1.477,0.291-3.281,0.133-5.037
		c-0.1-1.146-0.199-2.232-0.107-3.107C32.684,24.3,33,23.441,33.369,22.439z M31.029,28.054c0.145,1.619,0.295,3.295-0.082,4.516
		c-0.217,0.707-0.617,1.361-1.049,1.914c0.111-1.551,0.068-3.588-0.596-5.217c-0.965-2.357-2.857-4.204-4.302-4.204
		c-1.447,0-3.336,1.847-4.302,4.204c-0.667,1.629-0.705,3.666-0.595,5.219c-0.434-0.555-0.834-1.209-1.052-1.916
		c-0.375-1.221-0.225-2.893-0.082-4.514c0.108-1.213,0.212-2.362,0.108-3.367c-0.071-0.701-0.417-1.636-0.817-2.724
		c-0.938-2.544-2.223-6.03-0.046-7.248c0.881-0.494,1.705-0.735,2.514-0.735c0.886,0,1.672,0.295,2.37,0.559
		c0.616,0.23,1.253,0.472,1.902,0.472c0.647,0,1.287-0.241,1.906-0.475c0.693-0.261,1.479-0.556,2.367-0.556
		c0.807,0,1.629,0.241,2.514,0.735c2.178,1.218,0.891,4.704-0.051,7.252c-0.398,1.084-0.742,2.019-0.814,2.72
		C30.818,25.693,30.922,26.841,31.029,28.054z"/>
</g>
</svg>
