<?xml version="1.0" encoding="utf-8"?>
<!-- Generator: Adobe Illustrator 16.0.0, SVG Export Plug-In . SVG Version: 6.00 Build 0)  -->
<!DOCTYPE svg PUBLIC "-//W3C//DTD SVG 1.1//EN" "http://www.w3.org/Graphics/SVG/1.1/DTD/svg11.dtd">
<svg version="1.1" id="Camada_1" xmlns="http://www.w3.org/2000/svg" xmlns:xlink="http://www.w3.org/1999/xlink" x="0px" y="0px"
	 width="69px" height="70px" viewBox="0 0 69 70" enable-background="new 0 0 69 70" xml:space="preserve">
<path fill="#52C2F0" d="M53.634,4.002c-2.798-1.764-5.474-2.623-8.184-2.623c-2.938,0-5.383,1.035-7.348,1.871
	c-1.398,0.592-2.607,1.105-3.603,1.105s-2.204-0.514-3.603-1.105c-1.966-0.836-4.409-1.871-7.348-1.871
	c-2.711,0-5.387,0.859-8.183,2.623c-7.725,4.875-3.974,16.344-1.234,24.717c0.161,0.494,0.317,0.975,0.47,1.447H14.39v13.936h16.67
	V47.1h-11.73v3.529h11.73v2.469h-8.872v3.527h8.872v2.471h-5.354v3.527h5.354v2.471h-1.617v3.527h10.114v-3.527h-1.617v-2.471h5.354
	v-3.527h-5.354v-2.471h8.872v-3.527h-8.872v-2.469h11.73V47.1h-11.73v-2.998h16.67V30.166h-0.213
	c0.152-0.473,0.309-0.953,0.471-1.449C57.606,20.344,61.356,8.875,53.634,4.002z M51.502,28.15c-0.22,0.697-0.434,1.367-0.633,2.016
	H18.072c-0.2-0.648-0.414-1.316-0.634-2.014c-2.341-7.371-5.546-17.467,0.326-21.285c2.272-1.479,4.414-2.195,6.546-2.195
	c2.326,0,4.305,0.863,6.049,1.627c1.436,0.625,2.788,1.217,4.11,1.217c1.323,0,2.678-0.592,4.111-1.217
	c1.745-0.764,3.723-1.627,6.051-1.627c2.131,0,4.272,0.717,6.543,2.195C57.049,10.686,53.843,20.781,51.502,28.15z"/>
</svg>
