<?xml version="1.0" encoding="utf-8"?>
<!-- Generator: Adobe Illustrator 16.0.0, SVG Export Plug-In . SVG Version: 6.00 Build 0)  -->
<!DOCTYPE svg PUBLIC "-//W3C//DTD SVG 1.1//EN" "http://www.w3.org/Graphics/SVG/1.1/DTD/svg11.dtd">
<svg version="1.1" id="Camada_1" xmlns="http://www.w3.org/2000/svg" xmlns:xlink="http://www.w3.org/1999/xlink" x="0px" y="0px"
	 width="20px" height="20px" viewBox="0 0 20 20" enable-background="new 0 0 20 20" xml:space="preserve">
<g>
	<path fill="#52C2F0" d="M13.891,0.038H6.108c-3.203,0-5.809,2.605-5.809,5.811v8.302c0,3.207,2.605,5.812,5.809,5.812h7.783
		c3.203,0,5.811-2.604,5.811-5.812V5.849C19.701,2.644,17.094,0.038,13.891,0.038z M13.891,17.99H6.108
		c-2.115,0-3.837-1.723-3.837-3.84V5.849c0-2.115,1.722-3.838,3.837-3.838h7.783c2.115,0,3.838,1.723,3.838,3.838v8.302
		C17.729,16.268,16.006,17.99,13.891,17.99z"/>
	<path fill="#52C2F0" d="M10.038,4.552C8.585,4.5,7.156,5.084,6.113,6.168C5.122,7.195,4.577,8.547,4.577,9.972
		c0,2.993,2.434,5.425,5.424,5.425c1.443,0,2.798-0.563,3.818-1.592c1.004-1.011,1.572-2.365,1.604-3.807
		c0.033-1.505-0.434-2.819-1.35-3.797C13.105,5.169,11.711,4.6,10.038,4.552z M9.967,6.837c2.054,0.06,3.21,1.195,3.167,3.111
		c-0.037,1.772-1.414,3.159-3.134,3.159c-1.729,0-3.138-1.404-3.138-3.136c0-1.73,1.354-3.135,3.018-3.135V6.559L9.967,6.837z"/>
	<path fill="#52C2F0" d="M15.271,3.203c-0.816,0-1.479,0.666-1.479,1.479c0,0.814,0.662,1.477,1.479,1.477
		c0.814,0,1.477-0.662,1.477-1.477C16.748,3.869,16.086,3.203,15.271,3.203z"/>
</g>
</svg>
